<svg width="128" height="128" xmlns="http://www.w3.org/2000/svg">

 <g>
  <title>background</title>
  <rect fill="none" id="canvas_background" height="402" width="582" y="-1" x="-1"/>
 </g>
 <g>
  <title>Layer 1</title>
  <path fill="#e5e5e5" id="svg_3" d="m64.032,13.869c-27.642,0 -50.129,22.489 -50.129,50.131c0.002,27.643 22.49,50.131 50.131,50.131c27.64,0 50.126,-22.488 50.126,-50.131c0,-27.642 -22.487,-50.131 -50.128,-50.131zm0.002,96.262c-25.434,0 -46.129,-20.693 -46.131,-46.131c0,-25.437 20.693,-46.131 46.129,-46.131c25.435,0 46.128,20.694 46.128,46.131c0,25.438 -20.692,46.131 -46.126,46.131zm14.505,-41.213l-12.505,10.776l0,-35.752c0,-1.104 -0.896,-2 -2,-2s-2,0.896 -2,2l0,35.752l-12.507,-10.776c-0.837,-0.721 -2.101,-0.627 -2.821,0.21s-0.627,2.101 0.21,2.821l17.118,14.748l17.116,-14.748c0.837,-0.722 0.931,-1.984 0.209,-2.821c-0.72,-0.837 -1.983,-0.931 -2.82,-0.21z"/>
 </g>
</svg>