<svg width="1000.0000000000001" height="1000.0000000000001" xmlns="http://www.w3.org/2000/svg">
 <metadata>Svg Vector Icons : http://www.onlinewebfonts.com/icon</metadata>

 <g>
  <title>background</title>
  <rect fill="none" id="canvas_background" height="402" width="582" y="-1" x="-1"/>
 </g>
 <g>
  <title>Layer 1</title>
  <ellipse stroke="null" ry="477.420902" rx="474.469307" id="svg_4" cy="503.620297" cx="502.951585" stroke-opacity="null" stroke-width="null" fill="#fd8469"/>
  <path stroke="null" opacity="0.19" id="svg_19" d="m308.884076,699.343439c0,0 424.147084,-414.67312 423.606426,-415.990073c0.540658,1.316953 256.833793,241.022507 256.293135,239.705566c0.540658,1.316941 -22.922804,326.756607 -392.923446,457.982272" stroke-opacity="null" stroke-width="NaN" fill="#000000"/>
  <ellipse stroke="null" opacity="0.5" ry="281.87759" rx="284.091252" id="svg_5" cy="579.623963" cx="-568.47842" stroke-opacity="null" stroke-width="null" fill="#51504f"/>
  <rect stroke="null" transform="rotate(-45 -677.3184814453126,232.44227600097653) " opacity="0.19" id="svg_8" height="385.630684" width="499.065783" y="39.62691" x="-926.851371" stroke-opacity="null" stroke-width="NaN" fill="#000000"/>
  <ellipse ry="293.68397" rx="307.704059" id="svg_20" cy="489.60023" cx="511.806391" stroke-opacity="null" stroke-width="null" stroke="null" fill="#ffffff"/>
  <path fill="#007f7f" stroke="null" id="svg_2" d="m646.695541,569.152615c93.489631,-35.733937 93.614784,-108.820563 0.542332,-144.716376c-1.960737,-0.768907 -3.128836,-2.711409 -2.836812,-4.815785c5.131292,-33.953311 0.292025,-60.419896 -11.555836,-77.861943c-0.667485,-0.971251 -0.834356,-2.063908 -0.458896,-3.116096c7.175465,-22.702988 -10.220866,-46.498634 -35.418428,-46.498634c-17.813508,0 -32.665052,12.181104 -36.252784,28.32815c-0.333743,1.295001 -1.168099,2.266252 -2.419633,2.711409c-13.683444,4.815785 -28.326399,12.828605 -43.469967,24.524084c-1.376688,1.092657 -3.337425,1.092657 -4.714113,0c-78.804959,-60.703178 -144.260216,-24.078927 -129.408673,72.520063c0.292025,1.699689 -0.709203,3.358909 -2.377916,3.965941c-82.476127,31.565652 -92.279814,92.187893 -29.45278,130.673707c1.376688,0.849844 2.044173,2.306721 1.710431,3.885003c-3.754604,17.968141 7.175465,36.057688 25.406151,41.480505c1.585277,0.485625 2.628223,1.821095 2.66994,3.439847c2.211044,73.208032 61.617218,95.911021 131.536281,42.006599c1.376688,-1.092657 3.337425,-1.092657 4.755831,0c46.056471,35.491125 87.523983,37.757377 111.09455,14.204544c1.001228,-1.01172 2.336198,-1.497345 3.796321,-1.295001c21.734983,2.387658 41.217205,-14.042668 41.217205,-35.733937c0,-14.973451 -9.386509,-27.802055 -22.819647,-33.224873c-1.376688,-0.526094 -2.252762,-1.699689 -2.336198,-3.116096c-0.37546,-4.289691 -0.876074,-8.700789 -1.585277,-13.273762c-0.250307,-1.780627 0.709203,-3.439847 2.377916,-4.087347zm-122.149772,-215.53675c11.388964,-7.446256 22.402468,-12.626261 32.790205,-15.66142c1.91902,-0.566563 4.004911,0.445157 4.672396,2.266252c8.093257,22.338769 36.252784,30.796746 55.985312,17.522984c1.835584,-1.254532 4.296935,-0.728438 5.423316,1.133126c8.301846,13.435637 12.390192,32.091747 10.888351,55.239892c-0.208589,2.913753 -3.045401,4.815785 -5.882212,3.965941c-16.06136,-4.734848 -34.292047,-8.457976 -54.733778,-10.967041c-4.839267,-0.566563 -8.80246,-2.832815 -11.764425,-6.555943c-12.682217,-16.227983 -25.406151,-29.906432 -37.879779,-41.156755c-1.793866,-1.65922 -1.585277,-4.451566 0.500614,-5.787036zm-121.023391,180.086094c-2.044173,-1.01172 -3.003683,-3.197034 -2.336198,-5.301411c1.501841,-4.613442 3.170554,-9.267352 5.006138,-14.042668c1.168099,-3.075628 5.506752,-3.237503 6.966876,-0.364219c10.053994,19.748767 21.60983,39.133315 34.208611,57.465675c1.835584,2.67094 -0.500614,6.232193 -3.796321,5.66563c-5.840495,-0.971251 -11.514118,-2.063908 -16.937434,-3.197034c-1.877302,-0.445157 -3.170554,-2.185314 -2.961965,-4.00641c1.793866,-14.932982 -6.257673,-29.461276 -20.149706,-36.219563zm2.66994,-54.63286c-6.466262,-16.794546 -10.804915,-32.415497 -13.307984,-46.620041c-0.333743,-1.780627 0.709203,-3.480316 2.419633,-4.087347c13.933751,-5.018129 30.036829,-9.186414 48.309234,-12.140636c3.295708,-0.526094 5.673623,2.99469 3.796321,5.706099c-12.640499,18.33236 -24.196335,37.757377 -34.250329,57.506144c-1.418406,2.873284 -5.757059,2.67094 -6.966876,-0.364219zm10.679762,24.766897c-2.211044,-4.65391 -2.211044,-9.510165 0,-14.204544c11.430682,-24.119396 25.656458,-48.076917 41.509229,-69.727717c3.087119,-4.208754 7.384054,-6.636881 12.682217,-7.122506c27.200018,-2.428127 55.693288,-2.387658 82.893305,0.040469c5.298163,0.445157 9.595098,2.913753 12.682217,7.082037c15.769335,21.6508 30.036829,45.608321 41.467511,69.646779c2.252762,4.694379 2.211044,9.550633 0,14.245012c-11.430682,24.078927 -25.698176,48.076917 -41.509229,69.727717c-3.087119,4.208754 -7.425772,6.636881 -12.723935,7.122506c-27.200018,2.387658 -55.693288,2.387658 -82.893305,-0.040469c-5.256445,-0.445157 -9.595098,-2.913753 -12.682217,-7.122506c-15.727618,-21.6508 -29.953394,-45.567852 -41.425794,-69.646779zm160.738754,67.663809c12.640499,-18.33236 24.196335,-37.757377 34.250329,-57.546613c1.460124,-2.873284 5.840495,-2.67094 7.008593,0.404688c6.466262,16.794546 10.804915,32.415497 13.266266,46.620041c0.333743,1.780627 -0.709203,3.439847 -2.419633,4.087347c-13.975469,5.018129 -30.078547,9.186414 -48.309234,12.140636c-3.295708,0.526094 -5.673623,-3.035159 -3.796321,-5.706099zm41.217205,-92.471174c-1.168099,3.035159 -5.506752,3.237503 -7.008593,0.364219c-10.012276,-19.748767 -21.568112,-39.133315 -34.208611,-57.465675c-1.877302,-2.67094 0.458896,-6.232193 3.796321,-5.66563c17.98038,2.913753 33.874869,7.0011 47.683466,11.938292c2.127609,0.728438 3.295708,2.792346 2.920247,4.896723c-2.461351,14.042668 -6.800004,29.420807 -13.182831,45.932071zm-103.919086,-114.93135c11.4724,9.145945 23.236825,20.63908 35.00125,34.438936c2.127609,2.509065 0.125153,6.272662 -3.212272,6.070318c-22.652775,-1.456876 -45.764447,-1.497345 -68.375504,-0.040469c-3.337425,0.242813 -5.339881,-3.561253 -3.170554,-6.029849c11.722707,-13.799856 23.487132,-25.292991 34.917814,-34.438936c1.418406,-1.133126 3.420861,-1.173595 4.839267,0zm-14.392647,-10.481415c2.044173,1.295001 2.252762,4.127816 0.417178,5.746567c-12.43191,11.250322 -25.155844,24.888303 -37.796343,41.116286c-2.961965,3.804066 -6.925158,5.98938 -11.764425,6.555943c-20.858909,2.549533 -39.381621,6.434537 -55.693288,11.250322c-2.336198,0.728438 -4.755831,-0.890313 -4.880985,-3.277972c-5.256445,-73.93647 46.223343,-102.790714 109.717862,-61.391147zm-141.631993,188.705945c-1.33497,1.497345 -3.712886,1.740158 -5.298163,0.445157c-42.093279,-33.224873 -33.707997,-79.561632 25.155844,-107.525562c2.252762,-1.052188 4.839267,0.161875 5.381599,2.509065c3.796321,16.066108 9.636816,33.589092 17.813508,52.366608c1.877302,4.411098 1.877302,8.822195 0,13.192824c-3.546015,8.134226 -6.633133,15.98517 -9.303073,23.633771c-0.667485,1.861564 -2.461351,3.035159 -4.505524,2.99469c-11.138658,-0.364219 -21.943572,4.168285 -29.244191,12.383448zm141.631993,97.448835c-55.109238,35.97675 -101.16571,18.939391 -108.966942,-34.600811c-0.250307,-1.902033 1.042945,-3.723128 3.003683,-4.127816c10.51289,-2.144846 19.398786,-8.619851 24.571795,-17.401578c0.834356,-1.416407 2.419633,-2.185314 4.088346,-1.821095c8.844177,1.780627 18.230687,3.277972 28.11781,4.492035c4.839267,0.566563 8.80246,2.832815 11.764425,6.555943c12.682217,16.187514 25.406151,29.906432 37.879779,41.156755c1.835584,1.618751 1.585277,4.411098 -0.458896,5.746567zm9.595098,-10.481415c-11.4724,-9.186414 -23.236825,-20.63908 -34.959532,-34.479405c-2.169327,-2.509065 -0.166871,-6.232193 3.170554,-6.029849c22.652775,1.456876 45.764447,1.456876 68.375504,0.040469c3.337425,-0.242813 5.339881,3.520784 3.170554,6.029849c-11.722707,13.799856 -23.445414,25.252522 -34.917814,34.438936c-1.376688,1.133126 -3.420861,1.133126 -4.839267,0zm120.85652,-42.330349c-30.245418,2.144846 -44.429477,37.352689 -25.280998,59.003489c1.835584,2.185314 1.251535,5.422817 -1.293252,6.798756c-20.107988,10.764697 -48.517823,7.446256 -79.847904,-12.99048c-2.044173,-1.295001 -2.29448,-4.127816 -0.458896,-5.746567c12.43191,-11.250322 25.114127,-24.888303 37.796343,-41.116286c2.961965,-3.804066 6.925158,-5.98938 11.764425,-6.555943c20.817191,-2.549533 39.381621,-6.434537 55.65157,-11.290791c2.336198,-0.687969 4.755831,0.930782 4.922703,3.31844c0.083436,1.618751 0.208589,3.156565 0.250307,4.734848c0.125153,1.98297 -1.460124,3.682659 -3.504297,3.844535zm9.928841,-31.32284c-3.838039,-16.066108 -9.636816,-33.589092 -17.771791,-52.407077c-1.91902,-4.370629 -1.91902,-8.781726 0,-13.152355c7.968103,-18.413297 13.76688,-35.572062 17.521484,-51.435826c0.667485,-2.832815 3.838039,-4.249222 6.50798,-2.99469c67.791455,32.65831 67.541148,89.962109 -0.876074,122.458544c-2.211044,1.092657 -4.839267,-0.161875 -5.381599,-2.468596z"/>
  <path stroke="null" fill="#00bfbf" id="svg_3" d="m514.471681,541.276271c30.304246,0 54.817367,-23.919253 54.817367,-53.441562c0,-29.522309 -24.513121,-53.441562 -54.817367,-53.441562c-30.264581,0 -54.817367,23.919253 -54.817367,53.441562c0,29.522309 24.552786,53.441562 54.817367,53.441562z"/>
  <path d="m38.812862,48.336376c0,0 2.978226,-0.279083 4.427395,0c7.80402,1.502914 13.013569,7.713825 22.136986,14.757988c10.04866,7.758541 21.417923,18.379665 32.467575,29.51598c12.516792,12.61496 23.894051,23.287773 32.467575,30.991776c7.915817,7.112999 12.471222,10.99543 16.23378,14.757988c3.762558,3.762558 8.641846,5.806 7.378998,8.854797c-1.785934,4.311646 -10.330597,1.4758 -19.185379,1.4758c-10.330597,0 -20.689705,-0.917023 -35.419182,0c-11.875275,0.739319 -23.946716,2.093414 -32.467567,5.903183c-10.862007,4.856522 -18.414017,11.035034 -26.564384,19.185394c-8.15036,8.15036 -15.7798,15.36441 -20.661182,22.136978c-1.929535,2.677094 -4.427396,7.378998 -4.427396,8.854797l0,2.951599l0,1.4758l0,1.4758" id="svg_10" fill-opacity="null" stroke-opacity="null" stroke-width="NaN" stroke="null" fill="none"/>
  <path d="m68.328835,119.174721c1.4758,0 6.016678,0.396332 11.806396,-1.4758c7.561913,-2.445175 16.562492,-6.971664 22.136978,-11.806389c6.306816,-5.469872 10.290031,-11.286171 11.806396,-17.709587c1.017212,-4.30896 0.678139,-10.409546 0,-13.282188c-0.758179,-3.211708 -3.226112,-3.973663 -5.903198,-5.903198c-3.386284,-2.440689 -4.16729,-3.66922 -7.378998,-4.427399c-2.872635,-0.678135 -5.924736,-0.436264 -10.330589,0c-7.488503,0.741508 -18.42292,6.616531 -29.515976,17.709587c-11.09306,11.093056 -20.232067,21.605576 -25.088581,32.467575c-3.809765,8.520859 -2.951599,14.757988 -2.951599,20.661186c0,4.427399 1.4758,7.378998 2.951599,10.330597l1.4758,2.951599l2.951595,0" id="svg_11" stroke-opacity="null" stroke-width="NaN" stroke="null" fill="none"/>
  <path d="m-399.499382,138.360104c1.4758,0 4.448944,-1.039536 8.85479,-1.4758c7.48851,-0.741508 14.593513,-3.238029 22.136986,-7.37899c8.67836,-4.763954 15.268898,-6.944313 17.709587,-10.330589c1.929543,-2.677086 1.4758,-5.903198 1.4758,-8.854797l0,-1.4758" id="svg_12" fill-opacity="null" stroke-opacity="null" stroke-width="NaN" stroke="null" fill="none"/>
  <polyline stroke="null" transform="rotate(-165.01556396484375 43.240257263183594,135.40850830078122) " stroke-linecap="round" id="svg_13" points="43.240257263183594,135.40850830078125 43.240257263183594,135.40850830078125 43.240257263183594,135.40850830078125 " fill-opacity="null" stroke-opacity="null" stroke-width="NaN" fill="none"/>
  <path d="m-538.224495,52.763773c-5.903198,2.951595 -11.303764,9.689087 -20.661186,14.757988c-9.882538,5.353355 -16.428596,8.493683 -22.136978,11.806389c-4.602249,2.670792 -6.177708,3.973663 -8.854794,5.903198c-1.693138,1.220345 -3.207054,2.734253 -4.427399,4.427391c-1.929539,2.677086 -4.427395,8.854797 -5.903194,13.282196c-1.4758,4.427391 -2.726139,8.915771 -4.427395,14.757988c-1.304802,4.480766 -1.4758,7.37899 -1.4758,11.806389c0,2.951599 -1.129528,4.652069 0,7.378998c0.798698,1.928223 3.226105,1.022064 5.903194,2.951599c1.693142,1.220352 4.167286,2.19342 7.378994,2.951599c1.436321,0.339066 4.427399,1.4758 7.378994,1.4758c5.903194,0 11.806389,0 17.709587,0c5.903198,0 11.828506,-1.115158 14.757988,-1.4758c6.039284,-0.743469 8.85479,-2.951599 14.757988,-5.903198c5.903198,-2.951599 10.926826,-6.51059 17.709587,-11.806396c6.580231,-5.137688 12.571899,-12.605148 17.709579,-19.185387c5.295807,-6.782753 8.18866,-14.418442 10.330597,-20.661179c2.442184,-7.117821 1.4758,-11.806389 1.4758,-14.757988c0,-4.427399 -0.498062,-6.360703 -2.951599,-10.330597c-2.194504,-3.550777 -7.378998,-5.903194 -14.75798,-8.85479c-7.378998,-2.951603 -16.056664,-6.614071 -26.564384,-8.854794c-10.206001,-2.176384 -22.136986,-1.4758 -32.467575,-2.951599l-4.427399,-1.475796l-1.4758,0" id="svg_14" stroke-opacity="null" stroke-width="NaN" stroke="null" fill="#7fff00"/>
  <path id="svg_15" d="m-597.256417,160.497087c-119.539706,-91.499528 33.943373,-156.434678 -14.757988,-42.798166" opacity="0.5" stroke-opacity="null" stroke-width="NaN" stroke="null" fill="#7fff00"/>
  <path id="svg_17" d="m-980.964087,313.980153c0,0 351.240125,-349.764326 351.240125,-349.764326c0,0 205.136039,205.136039 205.136039,205.136039c0,0 -323.199947,385.183498 -323.199947,385.183498c0,0 -30.991776,-432.409061 -30.991776,-432.409061c0,0 -168.241068,501.771607 -240.555212,395.51409" opacity="0.5" stroke-opacity="null" stroke-width="NaN" stroke="null" fill="#7fff00"/>
  <path transform="translate(-1134.8892822265625,-426.505859375) " id="svg_18" d="m767.85749,373.012121c0,0 -352.715924,351.240125 -352.715924,351.240125c0,0 239.079413,234.652016 239.079413,234.652016c0,0 122.491304,79.693138 190.378051,-106.257517" opacity="0.5" fill-opacity="null" stroke-opacity="null" stroke-width="NaN" stroke="null" fill="#7fff00"/>
  <ellipse ry="222.845626" rx="195.543347" id="svg_21" cy="128.029512" cx="-353.011731" stroke-opacity="null" stroke-width="null" stroke="null" fill="#ffffff"/>
 </g>
</svg>