<svg width="60.00000000000001" height="60.00000000000001" xmlns="http://www.w3.org/2000/svg">
 <title/>
 <desc/>

 <g>
  <title>background</title>
  <rect fill="none" id="canvas_background" height="402" width="582" y="-1" x="-1"/>
 </g>
 <g>
  <title>Layer 1</title>
  <polygon fill="#509b7e" points="30.090907633304596,-0.1818152666091919 56.07166630029678,14.818184733390808 56.07166630029678,44.81818473339081 30.090907633304596,59.81818473339081 4.1101489663124084,44.81818473339081 4.1101489663124084,14.818184733390808 " id="Polygon-1"/>
  <polygon fill="#308e6a" points="55.98075866699219,15 55.98075866699219,45 30,60 4.0192413330078125,45 " id="Polygon-1"/>
  <path fill="#f4f4f4" id="facebook" d="m25.46222,47.31431l0,-17.31535l-3.51893,0l0,-5.7396l3.51893,0l0,-3.47097c0,-4.68175 1.39977,-8.05777 6.52588,-8.05777l6.09826,0l0,5.72782l-4.29411,0c-2.15036,0 -2.64038,1.42894 -2.64038,2.92532l0,2.8756l6.61755,0l-0.90325,5.7396l-5.7143,0l0,17.31535l-5.68965,0z"/>
 </g>
</svg>