<?xml version="1.0" encoding="utf-8"?>
<!-- Svg Vector Icons : http://www.onlinewebfonts.com/icon -->
<!DOCTYPE svg PUBLIC "-//W3C//DTD SVG 1.1//EN" "http://www.w3.org/Graphics/SVG/1.1/DTD/svg11.dtd">
<svg version="1.1" xmlns="http://www.w3.org/2000/svg" xmlns:xlink="http://www.w3.org/1999/xlink" x="0px" y="0px" viewBox="0 0 1000 1000" enable-background="new 0 0 1000 1000" xml:space="preserve">
<metadata> Svg Vector Icons : http://www.onlinewebfonts.com/icon </metadata>
<g><path d="M607.1,338.5c-35-0.6-65.3,24.9-66.2,64.6c-0.7,33.2,29.3,63.2,62.9,63.4c35.7,0.3,64.5-28.1,65-63.8C669.2,368.5,640.8,339,607.1,338.5z"/><path d="M500,10C229.4,10,10,229.4,10,500s219.4,490,490,490s490-219.4,490-490S770.6,10,500,10z M403.3,727.2c-15.1,15.3-30.4,30.4-45.5,45.6c-5,5-10.5,7.4-17.5,4.8c-7.1-2.7-10.6-7.9-10.9-15.3c-0.2-4.7-0.1-9.4-0.2-14.1c-0.2-8.6-0.3-8.7-8.2-6.1c-17,5.6-33.9,11.3-50.9,16.9c-5,1.7-10,2.4-14.9-0.4c-7.2-4.1-9.9-11.3-7-20.3c5.6-17.4,11.6-34.8,17.3-52.2c2.5-7.6,2.4-7.7-5.8-7.8c-4.9-0.1-9.9,0-14.8-0.2c-7.2-0.3-12.3-3.8-14.9-10.6c-2.6-6.6-0.9-12.4,3.9-17.2c15.8-15.9,31.6-31.7,47.4-47.5c3.2-3.1,6.9-4.9,11-4.5c8.6,0.1,13.3,3.9,16.4,12.7c12.1,34.4,34,60.5,65.9,78.1c7,3.9,14.4,7.1,22.1,9.7C410.4,703.5,413.5,716.9,403.3,727.2z M778.3,274.7c-1.6,52-12.8,101.9-31.5,150.3c-22.4,57.9-55.2,108.8-101.1,150.9c-3.7,3.4-4.9,7.1-4.4,11.9c1.6,15.6,2.9,31.2,4.5,46.7c3.7,36.3-9,66-38.3,87.1c-31.4,22.6-64.1,43.5-96.5,64.7c-20.4,13.4-45.5,1.2-47.8-23c-2.6-27.8-4.7-55.7-6.6-83.6c-1-14-0.6-14.1-14.1-15.9c-35.9-4.7-63.9-21.7-83.2-52.7c-9.9-15.9-14.8-33.5-16.6-52c-0.5-5.5-2.7-7-8-7.2c-29-1.6-58-3.3-87-5.5c-24.1-1.8-36.3-27.2-23.4-48.5c9.1-14.9,18.7-29.5,28.1-44.2c10.1-15.9,20.1-31.8,30.2-47.6c18.5-29,45.2-44.7,79.4-44.9c19.6-0.2,39.2,3.3,58.7,5.4c3.7,0.4,6.3-0.1,8.9-3c45.4-50.7,101.6-85,165.2-107.9c36-13,73-21.4,110.9-25.3c19.1-2,38.4-2.7,57.5,0.8c10.4,1.9,10.9,2.4,12.6,12.5C777.5,254.1,778.8,264.3,778.3,274.7z"/></g>
</svg>