<svg width="1000" height="1000" xmlns="http://www.w3.org/2000/svg">
 <metadata>Svg Vector Icons : http://www.onlinewebfonts.com/icon</metadata>

 <g>
  <title>background</title>
  <rect fill="none" id="canvas_background" height="402" width="582" y="-1" x="-1"/>
 </g>
 <g>
  <title>Layer 1</title>
  <ellipse stroke="null" ry="493.654287" rx="495.130105" id="svg_13" cy="497.717099" cx="500.000009" stroke-opacity="null" stroke-width="null" fill="#fd8469"/>
  <path id="svg_21" d="m382.674087,796.566149c0,0 456.021473,-363.046221 456.021473,-363.046221c0,0 147.579765,162.337741 147.137258,161.226518c0.442507,1.111223 -61.540995,318.407718 -368.506905,378.915421" opacity="0.5" stroke-opacity="null" stroke-width="null" stroke="null" fill="#e4775f"/>
  <ellipse ry="329.840774" rx="335.006066" id="svg_14" cy="491.813935" cx="509.592688" stroke-opacity="null" stroke-width="null" stroke="null" fill="#ffffff"/>
  <g stroke="null" transform="translate(0,511) scale(0.10000000149011612,-0.10000000149011612) " id="svg_2">
   <path fill="#3a3a3a" stroke="null" id="svg_3" d="m4593.770755,2556.435018l-57.615249,-65.727448l120.031769,-136.932183l119.983271,-136.932183l-657.725596,-2.213045l-657.725596,-3.264242l-2.861363,-89.794316l-2.861363,-90.900839l658.695549,0c361.986716,0 657.725596,-3.264242 657.725596,-7.690333c0,-4.370765 -52.813978,-68.99169 -117.121908,-142.40947l-118.091861,-134.719138l57.615249,-65.727448l57.615249,-65.727448l222.749864,254.112936l223.719818,255.219459l-217.948594,248.635649c-120.031769,137.98338 -220.858455,249.742171 -223.719818,249.742171c-2.958359,0.055326 -30.79603,-29.544156 -62.465017,-65.672122z"/>
   <path fill="#3a3a3a" stroke="null" id="svg_4" d="m2862.597414,1994.48747l-222.749864,-254.112936l220.858455,-251.955217l220.858455,-251.955217l59.506659,68.99169l60.476612,67.885167l-120.031769,136.932183l-120.031769,136.932183l657.725596,2.213045l657.725596,3.264242l2.861363,90.900839l2.861363,89.794316l-665.38823,0l-665.38823,0l124.83304,142.40947l124.83304,142.40947l-57.615249,65.727448l-57.615249,65.727448l-223.719818,-255.164132z"/>
   <path fill="#3a3a3a" stroke="null" id="svg_5" d="m5417.60092,2099.662452l-156.502027,-104.068459l0,-729.475084l-0.969954,-730.581606l-323.57655,-262.854465l-323.57655,-263.960988l-2.861363,-455.666044l-1.939907,-455.666044l323.57655,-592.598227l324.546504,-592.653553l95.055461,0c71.049108,0 93.115554,3.264242 89.284237,14.218817c-1.939907,6.58381 -153.640664,285.870137 -337.010409,618.878141l-332.209138,606.817043l0,378.984021l0.969954,380.090544l236.183723,191.705056c130.555766,105.174982 240.063538,193.862775 244.816311,194.969298c3.831317,2.213045 7.662634,-196.075821 7.662634,-440.340705l0,-444.711469l81.621603,0l81.621603,0l1.939907,1239.914001l2.861363,1238.807478l79.681695,53.66635l78.711742,53.66635l81.621603,-52.559828l81.621603,-52.559828l0,-774.344579l0,-775.506428l81.621603,0l81.621603,0l0,186.227769l0,186.227769l36.470259,26.279914c20.175037,14.218817 58.585203,40.554057 84.482966,56.985919l47.042754,29.599482l79.681695,-52.559828l78.711742,-52.559828l0,-189.602663l0,-190.598533l86.422874,0l86.422874,0l0,102.961936c0,159.947855 -0.969954,157.73481 91.224144,217.98497l79.681695,51.508631l81.621603,-54.772873l80.651649,-53.66635l-4.801271,-132.561418l-4.801271,-131.454896l82.591556,0l82.591556,0l2.861363,95.271604l2.861363,94.220407l76.820332,52.559828c85.45292,56.930592 71.049108,59.143638 180.508381,-15.325339l64.356427,-42.711776l0,-565.21179l0,-564.105268l-163.243206,-497.271297l-163.243206,-496.220101l0,-246.422603l0,-246.422603l81.621603,0l81.621603,0l0,228.939545l0,227.833022l163.243206,496.220101l163.243206,496.164774l0,636.361199l0,636.361199l-162.273252,107.332701c-88.314283,58.037115 -164.164662,106.226178 -167.074523,106.226178c-3.831317,0 -39.38012,-21.909149 -79.681695,-49.295586c-39.38012,-27.386437 -76.820332,-49.295586 -82.591556,-49.295586c-4.801271,0 -78.711742,40.554057 -163.243206,89.794316l-154.56212,89.904969l-48.982661,-31.757201c-26.867717,-17.538385 -64.307929,-41.605253 -82.591556,-53.66635l-34.578849,-20.802627l-138.266898,90.900839c-76.820332,49.295586 -152.67071,99.697694 -168.044476,110.652269l-28.807625,19.696104l-81.621603,-53.66635l-81.621603,-53.66635l-4.801271,532.348066l-4.801271,532.348066l-153.640664,101.855414c-84.482966,55.879396 -160.333345,101.855414 -168.044476,101.855414s-84.337473,-47.137867 -169.790393,-105.174982z"/>
  </g>
  <path id="svg_16" d="m211.48156,892.492996" opacity="0.5" stroke-opacity="null" stroke-width="null" stroke="null" fill="#fd8469"/>
 </g>
</svg>