<?xml version="1.0" encoding="utf-8"?>
<!-- Generator: Adobe Illustrator 23.0.0, SVG Export Plug-In . SVG Version: 6.00 Build 0)  -->
<svg version="1.1" id="图层_1" xmlns="http://www.w3.org/2000/svg" xmlns:xlink="http://www.w3.org/1999/xlink" x="0px" y="0px"
	 viewBox="0 0 1000 1000" style="enable-background:new 0 0 1000 1000;" xml:space="preserve">
<style type="text/css">
	.st0{fill:none;}
	.st1{fill:#FD8469;}
	.st2{opacity:0.37;fill:#932F26;enable-background:new    ;}
	.st3{fill:#FFFFFF;}
	.st4{fill:#3A3A3A;}
	.st5{opacity:0.5;fill:#FD8469;enable-background:new    ;}
</style>
<g>
	<title>background</title>
	<rect id="canvas_background" x="-1" y="-1" class="st0" width="582" height="402"/>
</g>
<g>
	<title>Layer 1</title>
	<ellipse id="svg_13" class="st1" cx="500" cy="497.7" rx="495.1" ry="493.7"/>
	<path id="svg_21" class="st2" d="M382.7,796.6l456-363c0,0,147.6,162.3,147.1,161.2c0.4,1.1-61.5,318.4-368.5,378.9"/>
	<ellipse id="svg_14" class="st3" cx="509.6" cy="491.8" rx="335" ry="329.8"/>
	<g id="svg_2" transform="translate(0,511) scale(0.10000000149011612,-0.10000000149011612) ">
		<path id="svg_3" class="st4" d="M4593.8,2556.4l-57.6-65.7l120-136.9l120-136.9l-657.7-2.2l-657.7-3.3l-2.9-89.8l-2.9-90.9h658.7
			c362,0,657.7-3.3,657.7-7.7c0-4.4-52.8-69-117.1-142.4l-118.1-134.7l57.6-65.7l57.6-65.7l222.8,254.1l223.7,255.2L4880,2372.4
			c-120,138-220.9,249.7-223.7,249.7C4653.3,2622.2,4625.4,2592.6,4593.8,2556.4z"/>
		<path id="svg_4" class="st4" d="M2862.6,1994.5l-222.7-254.1l220.9-252l220.9-252l59.5,69l60.5,67.9l-120,136.9l-120,136.9
			l657.7,2.2l657.7,3.3l2.9,90.9l2.9,89.8h-665.4h-665.4l124.8,142.4l124.8,142.4l-57.6,65.7l-57.6,65.7L2862.6,1994.5
			L2862.6,1994.5z"/>
		<path id="svg_5" class="st4" d="M5417.6,2099.7l-156.5-104.1v-729.5l-1-730.6l-323.6-262.9L4613,8.7l-2.9-455.7l-1.9-455.7
			l323.6-592.6l324.5-592.7h95.1c71,0,93.1,3.3,89.3,14.2c-1.9,6.6-153.6,285.9-337,618.9l-332.2,606.8v379l1,380.1l236.2,191.7
			c130.6,105.2,240.1,193.9,244.8,195c3.8,2.2,7.7-196.1,7.7-440.3v-444.7h81.6h81.6l1.9,1239.9l2.9,1238.8l79.7,53.7l78.7,53.7
			l81.6-52.6l81.6-52.6v-774.3V343.8h81.6h81.6v186.2v186.2l36.5,26.3c20.2,14.2,58.6,40.6,84.5,57l47,29.6l79.7-52.6l78.7-52.6
			V534.4V343.8h86.4h86.4v103c0,159.9-1,157.7,91.2,218l79.7,51.5l81.6-54.8l80.7-53.7l-4.8-132.6l-4.8-131.5h82.6h82.6l2.9,95.3
			l2.9,94.2l76.8,52.6c85.5,56.9,71,59.1,180.5-15.3l64.4-42.7V-37.4v-564.1l-163.2-497.3L6902.9-1595v-246.4v-246.4h81.6h81.6
			v228.9v227.8l163.2,496.2l163.2,496.2V-2.3v636.4l-162.3,107.3c-88.3,58-164.2,106.2-167.1,106.2c-3.8,0-39.4-21.9-79.7-49.3
			c-39.4-27.4-76.8-49.3-82.6-49.3c-4.8,0-78.7,40.6-163.2,89.8l-154.6,89.9l-49-31.8c-26.9-17.5-64.3-41.6-82.6-53.7l-34.6-20.8
			l-138.3,90.9c-76.8,49.3-152.7,99.7-168,110.7l-28.8,19.7l-81.6-53.7l-81.6-53.7l-4.8,532.3l-4.8,532.3L5755.4,2103
			c-84.5,55.9-160.3,101.9-168,101.9S5503.1,2157.7,5417.6,2099.7L5417.6,2099.7z"/>
	</g>
	<path id="svg_16" class="st5" d="M211.5,892.5"/>
</g>
</svg>
