<svg width="60" height="60" xmlns="http://www.w3.org/2000/svg">
 <title/>
 <desc/>

 <g>
  <title>background</title>
  <rect fill="none" id="canvas_background" height="402" width="582" y="-1" x="-1"/>
 </g>
 <g>
  <title>Layer 1</title>
  <polygon fill="#509b7e" points="30,0 55.98077392578125,15 55.98077392578125,45 30,60 4.01922607421875,45 4.01922607421875,15 " id="Polygon-6"/>
  <polygon fill="#308e6a" points="55.98077392578125,15 55.98077392578125,45 30,60 4.01922607421875,45 " id="Polygon-6"/>
  <path fill="#f4f4f4" id="linkedin" d="m21.88307,43.82315l0,-18.29881l-5.6557,0l0,18.29881l5.6557,0zm0,-24.78494c-0.03368,-1.63755 -1.12505,-2.88436 -2.89802,-2.88436c-1.77342,0 -2.93217,1.24681 -2.93217,2.88436c0,1.60199 1.12506,2.88487 2.86434,2.88487l0.03369,0c1.80711,0 2.93216,-1.28288 2.93216,-2.88487zm9.22697,24.78494l0,-10.42578c0,-0.55797 0.04033,-1.11594 0.20441,-1.5137c0.44858,-1.11539 1.46951,-2.27001 3.18375,-2.27001c2.2457,0 3.65408,1.2745 3.65408,3.78371l0,10.42578l5.69387,0l0,-10.70476c0,-5.7344 -3.06111,-8.40272 -7.14424,-8.40272c-3.34783,0 -4.81734,1.87169 -5.6333,3.14563l0.04088,-2.44739l-5.68403,0c0.08176,1.75181 0,18.40924 0,18.40924l5.68458,0z"/>
 </g>
</svg>